<svg id="Capa_1" data-name="Capa 1" xmlns="http://www.w3.org/2000/svg" viewBox="0 0 800 504.93"><defs><style>.cls-1{fill:#fff;}</style></defs><path class="cls-1" d="M59.39,544.41H740.61a10.67,10.67,0,0,0,10.67-10.67c0-177.16-131.84-324.08-302.55-347.88a50.13,50.13,0,0,0-97.45,0C180.56,209.66,48.72,356.58,48.72,533.74A10.67,10.67,0,0,0,59.39,544.41Zm84.24-156.76C164.55,347.09,192,315,225.32,292.31a13.86,13.86,0,0,1,15.62,22.91c-29.43,20.08-53.88,48.72-72.67,85.14a13.86,13.86,0,1,1-24.64-12.71ZM111,485c.09-.69,2.4-17.24,9.79-41.23A13.87,13.87,0,0,1,147.33,452c-6.73,21.85-8.8,36.67-8.82,36.82a13.87,13.87,0,0,1-13.72,12,13.58,13.58,0,0,1-1.9-.13A13.87,13.87,0,0,1,111,485Z" transform="translate(0 -147.53)"/><path class="cls-1" d="M762.76,578H37.24a37.25,37.25,0,0,0,0,74.5H762.76a37.25,37.25,0,0,0,0-74.5Z" transform="translate(0 -147.53)"/></svg>